<?xml version="1.0"?>
<svg xmlns="http://www.w3.org/2000/svg" width="512" height="512" viewBox="0 0 128 128"><g><path d="M115.5,78.25h4.75A7.759,7.759,0,0,0,128,70.5V42.426a7.759,7.759,0,0,0-7.75-7.75H115.5V29.941a15.96,15.96,0,0,0-10.031-14.795V6.719a6.719,6.719,0,1,0-13.438,0V14H35.969V6.719a6.719,6.719,0,1,0-13.438,0v8.329a15.958,15.958,0,0,0-10.3,14.893V44.62a6.76,6.76,0,0,0,5.457,6.623,11.54,11.54,0,0,0,9.968,9.808v7.568a1.75,1.75,0,0,0,3.5,0V61a11.537,11.537,0,0,0,9.652-9.759,6.76,6.76,0,0,0,5.457-6.623,7.453,7.453,0,0,1,7.445-7.445H69.02A12.46,12.46,0,0,1,81.466,49.62V87.629H20.25a7.759,7.759,0,0,0-7.75,7.75v17.934H7.343a7.342,7.342,0,1,0,0,14.684H120.657a7.342,7.342,0,1,0,0-14.684H115.5V78.25Zm4.75-40.074a4.255,4.255,0,0,1,4.25,4.25V70.5a4.255,4.255,0,0,1-4.25,4.25H115.5V38.176ZM95.531,6.719a3.219,3.219,0,1,1,6.438,0V14H95.531ZM26.031,14V6.719a3.219,3.219,0,0,1,6.438,0V14H26.031Zm3.377,43.653h-.316a8.044,8.044,0,0,1-7.837-6.279h15.99A8.044,8.044,0,0,1,29.408,57.649ZM69.02,33.675H53.712A10.958,10.958,0,0,0,42.767,44.62a3.254,3.254,0,0,1-3.25,3.25H18.983a3.254,3.254,0,0,1-3.25-3.25V29.941A12.46,12.46,0,0,1,28.179,17.5H99.555A12.459,12.459,0,0,1,112,29.941V87.629H84.966V49.62A15.964,15.964,0,0,0,69.02,33.675Zm55.48,86.98a3.847,3.847,0,0,1-3.843,3.842H7.343a3.842,3.842,0,1,1,0-7.684H120.657A3.847,3.847,0,0,1,124.5,120.655ZM16,113.313V95.379a4.255,4.255,0,0,1,4.25-4.25H112v22.184Z"/><path d="M93.216,63.252H103.75a1.75,1.75,0,0,0,0-3.5H93.216a1.75,1.75,0,0,0,0,3.5Z"/><path d="M93.216,54.313H103.75a1.75,1.75,0,0,0,0-3.5H93.216a1.75,1.75,0,0,0,0,3.5Z"/><path d="M93.216,45.373H103.75a1.75,1.75,0,0,0,0-3.5H93.216a1.75,1.75,0,0,0,0,3.5Z"/><path d="M93.216,36.435H103.75a1.75,1.75,0,0,0,0-3.5H93.216a1.75,1.75,0,0,0,0,3.5Z"/><path d="M97.685,81.129H99.28a6.22,6.22,0,1,0,0-12.439H97.685a6.22,6.22,0,0,0,0,12.439Zm0-8.939H99.28a2.72,2.72,0,1,1,0,5.439H97.685a2.72,2.72,0,0,1,0-5.439Z"/></g></svg>
